<?xml version="1.0" encoding="UTF-8" standalone="no"?>
<svg
   xmlns:dc="http://purl.org/dc/elements/1.1/"
   xmlns:cc="http://creativecommons.org/ns#"
   xmlns:rdf="http://www.w3.org/1999/02/22-rdf-syntax-ns#"
   xmlns:svg="http://www.w3.org/2000/svg"
   xmlns="http://www.w3.org/2000/svg"
   xmlns:sodipodi="http://sodipodi.sourceforge.net/DTD/sodipodi-0.dtd"
   xmlns:inkscape="http://www.inkscape.org/namespaces/inkscape"
   inkscape:version="1.0 (4035a4fb49, 2020-05-01)"
   sodipodi:docname="icon-facebook-2.svg"
   id="svg4"
   version="1.1"
   height="24"
   width="25">
  <metadata
     id="metadata10">
    <rdf:RDF>
      <cc:Work
         rdf:about="">
        <dc:format>image/svg+xml</dc:format>
        <dc:type
           rdf:resource="http://purl.org/dc/dcmitype/StillImage" />
        <dc:title></dc:title>
      </cc:Work>
    </rdf:RDF>
  </metadata>
  <defs
     id="defs8" />
  <sodipodi:namedview
     inkscape:current-layer="svg4"
     inkscape:window-maximized="1"
     inkscape:window-y="0"
     inkscape:window-x="0"
     inkscape:cy="10.360937"
     inkscape:cx="17.036656"
     inkscape:zoom="84.000001"
     showgrid="false"
     id="namedview6"
     inkscape:window-height="2095"
     inkscape:window-width="3840"
     inkscape:pageshadow="2"
     inkscape:pageopacity="0"
     guidetolerance="10"
     gridtolerance="10"
     objecttolerance="10"
     borderopacity="1"
     bordercolor="#666666"
     pagecolor="#ffffff"
     inkscape:document-rotation="0" />
  <path
     sodipodi:nodetypes="ssssscccccccsscccsccccccssss"
     style="fill:#ffffff"
     id="path2"
     d="M 22.3755,0 H 2.625 C 1.893,0 0,1.3305 0,2.0625 V 21.976 C 0,22.707 1.893,24 2.625,24 h 13.936 l 0.6,-2.024 H 13.42 v -9.27 H 11.092 V 9.484 H 13.42 V 6.813 c 0,-3.1 1.893235,-4.7519409 4.659,-4.788 1.291328,-0.016836 2.563,-0.027164 2.895,0 v 3.4835 l -2.018,0.001 c -1.504,0 -1.795,0.6145 -1.795,1.6625 v 2.313 h 3.687 v 3.238836 L 17.161,12.707 v 9.269 L 16.561,24 h 5.8165 c 0.73,0 2.623,-1.293 2.623,-2.025 V 2.0625 C 25.0005,1.3305 23.1075,0 22.3755,0 Z"
     fill="#FFF" />
</svg>
